<svg xmlns="http://www.w3.org/2000/svg" viewBox="0 0 1500 320" width="1500" height="320" font-family="Segoe UI, Helvetica, Arial, sans-serif">
<rect width="1500" height="320" rx="16" fill="#f7f6f2"/>
<defs><marker id="a" viewBox="0 0 10 10" refX="9" refY="5" markerWidth="7" markerHeight="7" orient="auto"><path d="M0,0 L10,5 L0,10 z" fill="#8a8f99"/></marker></defs>
<line x1="235.0" y1="160" x2="271.0" y2="160" stroke="#8a8f99" stroke-width="2" marker-end="url(#a)"/>
<path d="M485.0,160 C503.0,160 503.0,55 521.0,55" fill="none" stroke="#8a8f99" stroke-width="2" marker-end="url(#a)"/>
<line x1="485.0" y1="160" x2="521.0" y2="160" stroke="#8a8f99" stroke-width="2" marker-end="url(#a)"/>
<path d="M485.0,160 C503.0,160 503.0,265 521.0,265" fill="none" stroke="#8a8f99" stroke-width="2" marker-end="url(#a)"/>
<path d="M735.0,55 C753.0,55 753.0,160 771.0,160" fill="none" stroke="#8a8f99" stroke-width="2" marker-end="url(#a)"/>
<line x1="735.0" y1="160" x2="771.0" y2="160" stroke="#8a8f99" stroke-width="2" marker-end="url(#a)"/>
<path d="M735.0,265 C753.0,265 753.0,160 771.0,160" fill="none" stroke="#8a8f99" stroke-width="2" marker-end="url(#a)"/>
<line x1="985.0" y1="160" x2="1021.0" y2="160" stroke="#8a8f99" stroke-width="2" marker-end="url(#a)"/>
<line x1="1235.0" y1="160" x2="1271.0" y2="160" stroke="#8a8f99" stroke-width="2" marker-end="url(#a)"/>
<rect x="25.0" y="120.0" width="210" height="80" rx="12" fill="#d6efe9" stroke="#0f7b6c" stroke-width="2"/>
<text x="130" y="150" text-anchor="middle" font-size="16" font-weight="700" fill="#1d1f24">Getting</text>
<text x="130" y="170" text-anchor="middle" font-size="16" font-weight="700" fill="#1d1f24">started with R</text>
<text x="130" y="192" text-anchor="middle" font-size="13" fill="#4a4f5a">exercises 1 – 4</text>
<rect x="275.0" y="120.0" width="210" height="80" rx="12" fill="#d6efe9" stroke="#0f7b6c" stroke-width="2"/>
<text x="380" y="158" text-anchor="middle" font-size="16" font-weight="700" fill="#1d1f24">Hypothesis testing</text>
<text x="380" y="180" text-anchor="middle" font-size="13" fill="#4a4f5a">exercises 5a – 5d</text>
<rect x="525.0" y="15.0" width="210" height="80" rx="12" fill="#d6efe9" stroke="#0f7b6c" stroke-width="2"/>
<text x="630" y="45" text-anchor="middle" font-size="16" font-weight="700" fill="#1d1f24">Relationships</text>
<text x="630" y="65" text-anchor="middle" font-size="16" font-weight="700" fill="#1d1f24">and modelling</text>
<text x="630" y="87" text-anchor="middle" font-size="13" fill="#4a4f5a">exercises 6, 10</text>
<rect x="525.0" y="120.0" width="210" height="80" rx="12" fill="#d6efe9" stroke="#0f7b6c" stroke-width="2"/>
<text x="630" y="150" text-anchor="middle" font-size="16" font-weight="700" fill="#1d1f24">Multivariate</text>
<text x="630" y="170" text-anchor="middle" font-size="16" font-weight="700" fill="#1d1f24">methods</text>
<text x="630" y="192" text-anchor="middle" font-size="13" fill="#4a4f5a">exercises 7 – 9</text>
<rect x="525.0" y="225.0" width="210" height="80" rx="12" fill="#d6efe9" stroke="#0f7b6c" stroke-width="2"/>
<text x="630" y="255" text-anchor="middle" font-size="16" font-weight="700" fill="#1d1f24">Discrimination</text>
<text x="630" y="275" text-anchor="middle" font-size="16" font-weight="700" fill="#1d1f24">tests and panel</text>
<text x="630" y="297" text-anchor="middle" font-size="13" fill="#4a4f5a">exercises 13 – 16</text>
<rect x="775.0" y="120.0" width="210" height="80" rx="12" fill="#d6efe9" stroke="#0f7b6c" stroke-width="2"/>
<text x="880" y="158" text-anchor="middle" font-size="16" font-weight="700" fill="#1d1f24">Consumer research</text>
<text x="880" y="180" text-anchor="middle" font-size="13" fill="#4a4f5a">exercises 11a, 11b, 12</text>
<rect x="1025.0" y="120.0" width="210" height="80" rx="12" fill="#d6efe9" stroke="#0f7b6c" stroke-width="2"/>
<text x="1130" y="150" text-anchor="middle" font-size="16" font-weight="700" fill="#1d1f24">Rapid and</text>
<text x="1130" y="170" text-anchor="middle" font-size="16" font-weight="700" fill="#1d1f24">temporal methods</text>
<text x="1130" y="192" text-anchor="middle" font-size="13" fill="#4a4f5a">exercises 17, 18</text>
<rect x="1275.0" y="120.0" width="210" height="80" rx="12" fill="#fbe3e1" stroke="#0f7b6c" stroke-width="2"/>
<text x="1380" y="150" text-anchor="middle" font-size="16" font-weight="700" fill="#1d1f24">Assessment</text>
<text x="1380" y="170" text-anchor="middle" font-size="16" font-weight="700" fill="#1d1f24">case studies</text>
<text x="1380" y="192" text-anchor="middle" font-size="13" fill="#4a4f5a">exercises 19, 20</text>
<path d="M1235.0,160 C1253.0,160 1253.0,265 1271.0,265" fill="none" stroke="#8a8f99" stroke-width="2" marker-end="url(#a)"/>
<rect x="1275.0" y="225.0" width="210" height="80" rx="12" fill="#d6efe9" stroke="#0f7b6c" stroke-width="2"/>
<text x="1380" y="255" text-anchor="middle" font-size="16" font-weight="700" fill="#1d1f24">Additional</text>
<text x="1380" y="275" text-anchor="middle" font-size="16" font-weight="700" fill="#1d1f24">methods</text>
<text x="1380" y="297" text-anchor="middle" font-size="13" fill="#4a4f5a">exercises 21 – 25</text>
</svg>